<?xml version="1.0" encoding="UTF-8"?> <svg xmlns="http://www.w3.org/2000/svg" id="Layer_1" data-name="Layer 1" viewBox="0 0 103.54331 150"> <title>DMEXCO-All Logos</title> <g> <circle cx="19.89749" cy="135.05558" r="9.94442" style="fill: red"></circle> <rect x="74.3436" y="5.10478" width="18.75371" height="18.75371" style="fill: blue"></rect> <rect x="10.34174" y="102.93667" width="82.75557" height="2.84778"></rect> <rect x="10.34174" y="45.90907" width="82.75557" height="2.84778"></rect> <g> <path d="M10.34174,31.888V5.79139a.76673.76673,0,0,1,.23806-.55011A.75259.75259,0,0,1,11.12509,5h8.22115a7.81512,7.81512,0,0,1,3.30712.69488A8.46349,8.46349,0,0,1,25.301,7.59615a10.25886,10.25886,0,0,1,1.86427,2.78918,10.75043,10.75043,0,0,1,.91847,3.35859,41.69174,41.69174,0,0,1,.30562,5.0958,41.69158,41.69158,0,0,1-.30562,5.09579,10.75042,10.75042,0,0,1-.91847,3.3586A10.25881,10.25881,0,0,1,25.301,30.08328a8.46333,8.46333,0,0,1-2.64763,1.90127,7.815,7.815,0,0,1-3.30712.69489H11.12509a.75259.75259,0,0,1-.54529-.24128A.76675.76675,0,0,1,10.34174,31.888Zm5.46254-5.1344a.34172.34172,0,0,0,.38765.38605h3.17361a2.87594,2.87594,0,0,0,2.2455-.94581,3.98429,3.98429,0,0,0,1.00532-2.25837,41.05286,41.05286,0,0,0,.31045-5.09579,41.053,41.053,0,0,0-.31045-5.0958A3.98429,3.98429,0,0,0,21.611,11.48556a2.87594,2.87594,0,0,0-2.2455-.94581H16.19193c-.259,0-.38765.13511-.38765.40534Z"></path> <path d="M31.55492,31.888V5.79139A.82618.82618,0,0,1,32.34631,5h5.46254a.778.778,0,0,1,.83.67558l2.21976,7.7209a.36086.36086,0,0,0,.71418,0l2.20046-7.7209A.77794.77794,0,0,1,44.60324,5h5.46254a.82616.82616,0,0,1,.79139.79139V31.888a.82616.82616,0,0,1-.79139.7914H46.186a.82616.82616,0,0,1-.79139-.7914V16.23391q0-.15441-.11582-.17372t-.193.13512l-1.853,5.92579a.84984.84984,0,0,1-.83.67558H40.06721a.84983.84983,0,0,1-.83-.67558l-1.91093-5.92579q-.07721-.15442-.193-.13512t-.11581.17372V31.888a.7728.7728,0,0,1-.23163.55012.74762.74762,0,0,1-.55977.24128H32.34631a.82618.82618,0,0,1-.79139-.7914Z"></path> </g> <g> <path d="M10.34174,89.08933V62.98851a.82632.82632,0,0,1,.79152-.79152H25.49643a.8263.8263,0,0,1,.79152.79152V66.9461a.75343.75343,0,0,1-.24292.55021.76828.76828,0,0,1-.555.24131H16.21378a.37081.37081,0,0,0-.40863.40542v4.7298c0,.25741.13675.39255.40863.40542h8.948a.78382.78382,0,0,1,.555.23166.74349.74349,0,0,1,.24292.55986v3.95759a.76805.76805,0,0,1-.23327.5502.75811.75811,0,0,1-.56468.24132h-8.948a.36259.36259,0,0,0-.40863.38611v4.74911c0,.25741.13675.38611.40863.38611h9.43066a.76825.76825,0,0,1,.555.24132.75336.75336,0,0,1,.24293.5502v3.95759a.8263.8263,0,0,1-.79152.79152H11.13326a.8263.8263,0,0,1-.79152-.79152Z"></path> <path d="M30.11041,88.78045,35.92132,75.6142a1.166,1.166,0,0,0,.11583-.41506,1.47852,1.47852,0,0,0-.11583-.45368L30.7861,63.3167a.79832.79832,0,0,1,.0193-.78187.6858.6858,0,0,1,.61777-.33784h4.45954a.83789.83789,0,0,1,.75291.59847l3.28191,8.18546q.07722.15444.193.15444h.07722q.11583,0,.193-.15444l3.28191-8.18546a.83788.83788,0,0,1,.75291-.59847h4.47884a.692.692,0,0,1,.60812.33784.78121.78121,0,0,1,.029.78187L44.37706,74.78407a1.48136,1.48136,0,0,0-.11583.444,1.31563,1.31563,0,0,0,.11583.42471L50.188,88.78045a.97988.97988,0,0,1,.09652.40541.594.594,0,0,1-.11583.3668.67373.67373,0,0,1-.59846.32819H44.8983a.79589.79589,0,0,1-.83013-.59846L40.38085,79.9193q-.07722-.15446-.193-.15445h-.07722q-.11583,0-.193.15445L36.2302,89.28239a.79588.79588,0,0,1-.83013.59846H30.74749a.71046.71046,0,0,1-.61777-.34749.681.681,0,0,1-.11584-.38611A.82186.82186,0,0,1,30.11041,88.78045Z"></path> <path d="M52.40808,78.94116q-.07722-1.4286-.07722-2.90224,0-1.47444.07722-2.87328.07722-1.39722.23167-2.67218a10.67956,10.67956,0,0,1,.92665-3.35752,9.52757,9.52757,0,0,1,1.94019-2.77836,8.97889,8.97889,0,0,1,2.84754-1.89032,9.36963,9.36963,0,0,1,3.68732-.695,10.308,10.308,0,0,1,3.77419.67408,8.91342,8.91342,0,0,1,2.973,1.86779,8.64414,8.64414,0,0,1,1.95949,2.84915,9.10247,9.10247,0,0,1,.7143,3.64067.78829.78829,0,0,1-.24293.56629.75688.75688,0,0,1-.555.24775H66.67956a.6973.6973,0,0,1-.53412-.24293.99428.99428,0,0,1-.26384-.555,3.71388,3.71388,0,0,0-1.15671-2.53382,3.86586,3.86586,0,0,0-2.751-.97331,3.75013,3.75013,0,0,0-2.76066.93148,3.67173,3.67173,0,0,0-1.08754,2.22977q-.15686,1.279-.24453,2.68505-.08688,1.40688-.08688,2.87971,0,1.47444.08688,2.899.08928,1.42377.24453,2.66575a3.6963,3.6963,0,0,0,1.08754,2.25068,3.75633,3.75633,0,0,0,2.76066.92987,3.84327,3.84327,0,0,0,2.751-.983A3.73,3.73,0,0,0,65.8816,81.2771a.99428.99428,0,0,1,.26384-.555.6973.6973,0,0,1,.53412-.24293H70.6645a.8218.8218,0,0,1,.798.814,9.053,9.053,0,0,1-.7143,3.62136,8.75213,8.75213,0,0,1-1.95949,2.8588A8.85563,8.85563,0,0,1,65.8253,89.6508a10.2866,10.2866,0,0,1-3.78385.67408,9.36946,9.36946,0,0,1-3.68732-.695,8.87144,8.87144,0,0,1-2.84754-1.9,9.65944,9.65944,0,0,1-1.94019-2.788,10.67956,10.67956,0,0,1-.92665-3.35752Q52.48531,80.36815,52.40808,78.94116Z"></path> <path d="M73.9802,78.94116q-.08446-1.4286-.08527-2.90224,0-1.47444.08527-2.87328.08445-1.39722.2381-2.67218a10.75243,10.75243,0,0,1,.917-3.35752,9.49514,9.49514,0,0,1,1.91927-2.77836,8.85954,8.85954,0,0,1,2.817-1.89032,9.93806,9.93806,0,0,1,7.30225,0,8.842,8.842,0,0,1,2.825,1.89032,9.40573,9.40573,0,0,1,1.90962,2.77836,11.36236,11.36236,0,0,1,.925,3.35752q.152,1.27416.20754,2.67218.05792,1.39964.0563,2.87328,0,1.47444-.0563,2.89259-.05551,1.41653-.20754,2.65287a10.75243,10.75243,0,0,1-.917,3.35752,9.65329,9.65329,0,0,1-1.91766,2.788,8.76473,8.76473,0,0,1-2.81537,1.9,9.96325,9.96325,0,0,1-7.3119,0,8.75434,8.75434,0,0,1-2.817-1.9,9.62668,9.62668,0,0,1-1.91927-2.788,10.75243,10.75243,0,0,1-.917-3.35752Q74.06385,80.36815,73.9802,78.94116Zm5.465-5.78195q-.08688,1.40688-.08688,2.87971,0,1.47444.07722,2.899.07724,1.42377.25258,2.66575a3.48345,3.48345,0,0,0,3.8305,3.18055,3.76089,3.76089,0,0,0,2.75745-.92987,3.687,3.687,0,0,0,1.094-2.25068q.15444-1.22107.21236-2.6561.05792-1.43583.0547-2.90867-.00241-1.47444-.05953-2.87971-.0555-1.40447-.20753-2.68505a3.63729,3.63729,0,0,0-1.094-2.23942,3.77872,3.77872,0,0,0-2.75745-.92183,3.72024,3.72024,0,0,0-2.74779.93148,3.68307,3.68307,0,0,0-1.08271,2.22977Q79.53129,71.75313,79.44522,73.15921Z"></path> </g> <g> <path d="M61.0897,124.48533a.429.429,0,0,0-.75123-.31758l-4.79113,4.47516a.80045.80045,0,0,1-1.34771-.63355v-3.8013a2.239,2.239,0,0,1,.63516-1.74267l4.59446-4.94912a2.61732,2.61732,0,0,1,1.97964-.95113h4.39456a.79535.79535,0,0,1,.79315.79153v21.18447a.37316.37316,0,0,0,.39335.39658h4.39778a.79258.79258,0,0,1,.78992.79153v3.76262a.79259.79259,0,0,1-.78992.79154h-16.237a.79259.79259,0,0,1-.78992-.79154v-3.76262a.79258.79258,0,0,1,.78992-.79153h5.54559a.37317.37317,0,0,0,.39335-.39658Z"></path> <path d="M76.54319,136.12623h3.20806a1.02714,1.02714,0,0,1,1.10912.79154,3.26167,3.26167,0,0,0,3.48533,2.61481c2.45361,0,4.156-1.18811,4.156-4.75244,0-.55456-.51264-.67385-.94791-.51426a11.61588,11.61588,0,0,1-3.24675.59325c-4.63314,0-8.15717-3.761-8.43445-8.47314a14.96576,14.96576,0,0,1,0-1.941,8.5267,8.5267,0,0,1,8.47314-8.31516c4.98781,0,8.39254,3.84161,8.9471,8.59244a54.80326,54.80326,0,0,1,0,11.40392c-.55456,4.75244-3.95929,8.59244-8.8278,8.59244-4.95234,0-8.71173-3.366-8.71173-7.8009A.79259.79259,0,0,1,76.54319,136.12623Zm11.24594-9.62256a9.82233,9.82233,0,0,0,0-2.17632,3.249,3.249,0,0,0-6.4935,0,10.2286,10.2286,0,0,0,0,2.17632,3.247,3.247,0,1,0,6.4935,0Z"></path> </g> </g> </svg> 