<?xml version="1.0" encoding="utf-8"?>
<!-- Generator: Adobe Illustrator 19.1.0, SVG Export Plug-In . SVG Version: 6.00 Build 0)  -->
<svg version="1.1" id="Ebene_1" xmlns="http://www.w3.org/2000/svg" xmlns:xlink="http://www.w3.org/1999/xlink" x="0px" y="0px"
	 viewBox="0 0 454 64" style="enable-background:new 0 0 454 64;" xml:space="preserve">
<style type="text/css">
	.st0{clip-path:url(#SVGID_2_);fill:#0F0E09;}
	.st1{clip-path:url(#SVGID_2_);}
	.st2{clip-path:url(#SVGID_2_);fill:#FFFFFF;}
	.st3{clip-path:url(#SVGID_2_);fill-rule:evenodd;clip-rule:evenodd;fill:#FFFFFF;}
	.st4{clip-path:url(#SVGID_2_);fill-rule:evenodd;clip-rule:evenodd;}
</style>
<g>
	<defs>
		<rect id="SVGID_1_" x="1.4" width="451.2" height="64"/>
	</defs>
	<clipPath id="SVGID_2_">
		<use xlink:href="#SVGID_1_"  style="overflow:visible;"/>
	</clipPath>
	<path class="st0" d="M431.4,43.7H22.5c-11.7,0-21.1-9.5-21.1-21.1c0-11.7,9.5-21.1,21.1-21.1h408.9c11.7,0,21.1,9.5,21.1,21.1
		C452.5,34.2,443.1,43.7,431.4,43.7"/>
	<path class="st1" d="M156.4,51.1h-2.5V52v2.5v3.3c0,1-0.3,1.8-0.8,2.2c-0.5,0.5-1.3,0.7-2.5,0.7c-1.1,0-2-0.2-2.5-0.6
		c-0.5-0.4-0.7-1.1-0.7-2.1v-3.4V52v-0.9H145V52v3.4V58c0,1.6,0.4,2.7,1.3,3.4c0.9,0.7,2.3,1.1,4.4,1.1c2.1,0,3.6-0.3,4.4-1
		c0.9-0.7,1.3-1.8,1.3-3.5V53v-1V51.1z"/>
	<path class="st2" d="M45.3,12.4L38.5,25l-3.4-6.8l-3-5.9h-5.2v20.2h3.9V18.1l7.4,14.4L46,18.1V31c0,0,0,1.6,0,1.6h4.2V31V14v-1.6
		H45.3z"/>
	<path class="st2" d="M96.9,24.2c1.9-0.5,3.3-1.2,4.1-2.2s1.3-2.2,1.3-3.7c0-1.8-0.7-3.3-2.2-4.3c-1.5-1-3.5-1.5-6.1-1.5H82.4v20.2
		h4.4l0-8.3h5.5l5.6,8.3h5L96.9,24.2z M86.8,21.4v-5.5h6.1c2,0,3.3,0.2,4.1,0.6c0.8,0.4,1.1,1.1,1.1,2.1c0,1-0.4,1.7-1.2,2.2
		c-0.8,0.4-2.1,0.7-3.9,0.7H86.8z"/>
	<path class="st2" d="M397.5,24.2c1.9-0.5,3.2-1.2,4.1-2.2c0.9-1,1.3-2.2,1.3-3.7c0-1.8-0.7-3.3-2.2-4.3c-1.5-1-3.5-1.5-6.1-1.5H383
		v20.2h4.4l0-8.3h5.5l5.6,8.3h5L397.5,24.2z M387.4,21.4v-5.5h6.1c2,0,3.3,0.2,4.1,0.6c0.8,0.4,1.1,1.1,1.1,2.1c0,1-0.4,1.7-1.2,2.2
		c-0.8,0.4-2.1,0.7-3.9,0.7H387.4z"/>
	<polygon class="st2" points="119.6,20.6 129.7,12.4 129.7,12.4 124,12.4 113.3,20.9 113.3,12.4 108.9,12.4 108.9,32.6 113.3,32.6 
		113.3,25.6 116.4,23.2 120,27.4 124.3,32.6 129.6,32.6 	"/>
	<path class="st2" d="M67.6,12.4h-3.2l-9.7,20.2h3.9l2.3-5.2h9.3l2.4,5.2h4.9L67.6,12.4z M62.3,24.7l3.4-7.1l3.3,7.1H62.3z"/>
	<path class="st2" d="M293,12.4h-3.2l-9.7,20.2h3.9l2.3-5.2h9.3l2.4,5.2h4.9L293,12.4z M287.7,24.7l3.4-7.1l3.3,7.1H287.7z"/>
	<polygon class="st2" points="165.2,32.6 169.5,32.6 169.5,16 177.4,16 177.4,12.4 157.3,12.4 157.3,16 165.2,16 	"/>
	<polygon class="st2" points="338.4,32.6 342.8,32.6 342.8,16 350.7,16 350.7,12.4 330.5,12.4 330.5,16 338.4,16 	"/>
	<polygon class="st2" points="134.5,32.6 153.5,32.6 153.5,29 138.9,29 138.9,23.7 148.6,23.7 148.6,20.4 138.9,20.4 138.9,16 
		153.2,16 153.2,12.4 134.5,12.4 	"/>
	<rect x="183" y="12.4" class="st2" width="4.5" height="20.2"/>
	<polygon class="st2" points="216.6,12.4 212.8,12.4 212.8,25.6 199.9,12.4 195.6,12.4 195.6,32.6 199.5,32.6 199.5,18.9 213,32.6 
		216.6,32.6 	"/>
	<path class="st2" d="M234.4,22.5v2.8h6.6V28c-1.2,0.5-2.2,0.8-3.2,1c-1,0.2-2,0.3-2.9,0.3c-2.4,0-4.3-0.7-5.9-2
		c-1.6-1.3-2.4-3-2.4-4.9c0-2.1,0.7-3.8,2.2-5.1c1.4-1.3,3.3-2,5.6-2c1.7,0,3.2,0.3,4.7,0.9c0.3,0.1,0.5,0.2,0.8,0.3
		c0.3,0.1,0.5,0.3,0.8,0.5c0.5,0.3,0.9,0.6,1.3,1l1.9-3.7c-1-0.6-2-1-3.1-1.4c-0.2-0.1-1-0.3-1-0.3c-1.7-0.5-3.3-0.7-5.1-0.7
		c-3.6,0-6.5,1-8.8,3c-2.3,2-3.4,4.5-3.4,7.5c0,3,1.1,5.5,3.3,7.5c2.2,2,5,3,8.4,3c1.8,0,3.7-0.3,5.7-0.9c1.7-0.5,3.2-1.1,4.8-1.9
		v-7.7H234.4z"/>
	<polygon class="st2" points="265.5,29 265.5,27.2 265.5,23.7 275.3,23.7 275.3,20.4 265.5,20.4 265.5,16 279.9,16 279.9,12.4 
		261.1,12.4 261.1,32.6 265.5,32.6 	"/>
	<path class="st2" d="M323.4,27.8c-0.3,0.2-0.5,0.3-0.8,0.5c-0.2,0.1-0.5,0.2-0.8,0.3c-1.5,0.6-3.1,0.9-4.7,0.9
		c-2.3,0-4.1-0.7-5.6-2c-1.4-1.3-2.2-3-2.2-5.1c0,0,0,0,0,0s0,0,0,0c0-2.1,0.7-3.8,2.2-5.1c1.4-1.3,3.3-2,5.6-2
		c1.7,0,3.2,0.3,4.7,0.9c0.3,0.1,0.5,0.2,0.8,0.3c0.3,0.1,0.5,0.3,0.8,0.5c0.5,0.3,0.9,0.6,1.3,1l1.9-3.7c-1-0.6-2-1-3.1-1.4
		c-0.2-0.1-1-0.3-1-0.3c-1.7-0.5-3.3-0.7-5.1-0.7c-3.6,0-6.5,1-8.8,3c-2.3,2-3.4,4.5-3.4,7.5c0,3,1.1,5.5,3.4,7.5c2.3,2,5.2,3,8.8,3
		c1.7,0,3.4-0.2,5.1-0.7c0,0,0.8-0.2,1-0.3c1.1-0.4,2.2-0.9,3.1-1.4l-1.9-3.7C324.3,27.2,323.9,27.5,323.4,27.8"/>
	<path class="st2" d="M426.6,12.4h-4.1l-1.5,2c0,0,0,0,0,0l-4.6,6.2l-2.4-3.5l0,0l-1.8-2.7c0,0-0.1-0.1-0.1-0.2l-1.3-1.9h-5.3
		l1.5,2.2c0.1,0.1,0.1,0.2,0.2,0.3l6.6,9.3v2.6V31v1.6h4.5V31v-4.5v-2.7l4.1-5.6L426.6,12.4z"/>
	<path class="st3" d="M365.4,12c3.4,0,6.2,1,8.4,3c2.2,2,3.3,4.5,3.3,7.5c0,3-1.1,5.5-3.3,7.5c-2.2,2-5,3-8.4,3c-3.3,0-6.1-1-8.3-3
		c-2.2-2-3.3-4.5-3.3-7.5c0-3,1.1-5.5,3.3-7.5C359.3,13,362.1,12,365.4,12 M358.1,22.3c0,2.1,0.7,3.7,2,4.9c1.3,1.2,3.1,1.9,5.4,1.9
		c2.2,0,4-0.6,5.4-1.9c1.3-1.3,2-2.9,2-4.9c0-2.1-0.7-3.7-2-5c-1.4-1.3-3.1-1.9-5.4-1.9c-2.2,0-4,0.6-5.3,1.9
		C358.8,18.6,358.1,20.3,358.1,22.3"/>
	<path class="st1" d="M360.9,51.1l-3.8,7.1l-1.9-3.8l-1.7-3.3h-2.9v11.3h2.2v-8.1l4.2,8.1l4.4-8.1v7.2c0,0,0,0.9,0,0.9h2.3v-0.9V52
		v-0.9H360.9z"/>
	<polygon class="st1" points="101.5,51.1 99.4,51.1 99.4,58.4 92.1,51.1 89.8,51.1 89.8,62.4 91.9,62.4 91.9,54.7 99.5,62.4 
		101.5,62.4 	"/>
	<polygon class="st1" points="202.6,62.4 205.1,62.4 205.1,53.1 209.5,53.1 209.5,51.1 198.2,51.1 198.2,53.1 202.6,53.1 	"/>
	<rect x="225.1" y="51.1" class="st1" width="2.5" height="11.3"/>
	<polygon class="st1" points="256.5,51.1 254.4,51.1 254.4,58.4 247.1,51.1 244.8,51.1 244.8,62.4 246.9,62.4 246.9,54.7 
		254.5,62.4 256.5,62.4 	"/>
	<path class="st1" d="M278.9,56.7v1.6h3.7v1.5c-0.6,0.3-1.3,0.4-1.8,0.6c-0.6,0.1-1.1,0.2-1.6,0.2c-1.3,0-2.4-0.4-3.3-1.1
		c-0.9-0.8-1.3-1.7-1.3-2.7c0-1.2,0.4-2.1,1.2-2.8c0.8-0.7,1.9-1.1,3.1-1.1c0.9,0,1.8,0.2,2.6,0.5c0.2,0.1,0.3,0.1,0.4,0.2
		c0.2,0.1,0.3,0.2,0.4,0.3c0.3,0.2,0.5,0.4,0.7,0.6l1.1-2.1c-0.5-0.3-1.1-0.6-1.8-0.8c-0.1,0-0.5-0.2-0.5-0.2
		c-0.9-0.3-1.9-0.4-2.8-0.4c-2,0-3.6,0.6-4.9,1.7c-1.3,1.1-1.9,2.5-1.9,4.2c0,1.7,0.6,3.1,1.9,4.2c1.2,1.1,2.8,1.7,4.7,1.7
		c1,0,2.1-0.2,3.2-0.5c0.9-0.3,1.8-0.6,2.7-1.1v-4.3H278.9z"/>
	<path class="st1" d="M328.7,56.7v1.6h3.7v1.5c-0.6,0.3-1.3,0.4-1.8,0.6c-0.6,0.1-1.1,0.2-1.6,0.2c-1.3,0-2.4-0.4-3.3-1.1
		c-0.9-0.8-1.3-1.7-1.3-2.7c0-1.2,0.4-2.1,1.2-2.8c0.8-0.7,1.9-1.1,3.1-1.1c0.9,0,1.8,0.2,2.6,0.5c0.2,0.1,0.3,0.1,0.4,0.2
		c0.2,0.1,0.3,0.2,0.5,0.3c0.3,0.2,0.5,0.4,0.7,0.6l1.1-2.1c-0.5-0.3-1.1-0.6-1.8-0.8c-0.1,0-0.5-0.2-0.5-0.2
		c-0.9-0.3-1.9-0.4-2.8-0.4c-2,0-3.6,0.6-4.9,1.7c-1.3,1.1-1.9,2.5-1.9,4.2c0,1.7,0.6,3.1,1.9,4.2c1.2,1.1,2.8,1.7,4.7,1.7
		c1,0,2.1-0.2,3.2-0.5c0.9-0.3,1.8-0.6,2.7-1.1v-4.3H328.7z"/>
	<path class="st1" d="M44.2,59.7c-0.1,0.1-0.3,0.2-0.5,0.3c-0.1,0.1-0.3,0.1-0.4,0.2c-0.8,0.3-1.7,0.5-2.6,0.5
		c-1.3,0-2.3-0.4-3.1-1.1c-0.8-0.7-1.2-1.7-1.2-2.9c0,0,0,0,0,0c0,0,0,0,0,0c0-1.2,0.4-2.1,1.2-2.8c0.8-0.7,1.9-1.1,3.1-1.1
		c0.9,0,1.8,0.2,2.6,0.5c0.2,0.1,0.3,0.1,0.4,0.2c0.2,0.1,0.3,0.2,0.5,0.3c0.3,0.2,0.5,0.4,0.7,0.6l1.1-2.1
		c-0.5-0.3-1.1-0.6-1.8-0.8c-0.1,0-0.5-0.2-0.5-0.2c-0.9-0.3-1.9-0.4-2.8-0.4c-2,0-3.6,0.6-4.9,1.7C34.6,53.6,34,55,34,56.7
		s0.6,3.1,1.9,4.2c1.3,1.1,2.9,1.7,4.9,1.7c1,0,1.9-0.1,2.8-0.4c0,0,0.4-0.1,0.5-0.2c0.6-0.2,1.2-0.5,1.8-0.8l-1.1-2.1
		C44.6,59.3,44.4,59.5,44.2,59.7"/>
	<path class="st4" d="M67.4,50.8c1.9,0,3.5,0.6,4.7,1.7c1.2,1.1,1.8,2.5,1.8,4.2c0,1.7-0.6,3.1-1.9,4.2c-1.2,1.1-2.8,1.7-4.7,1.7
		c-1.9,0-3.4-0.6-4.7-1.7c-1.2-1.1-1.9-2.5-1.9-4.2c0-1.7,0.6-3.1,1.8-4.2C64,51.4,65.5,50.8,67.4,50.8 M63.3,56.6
		c0,1.2,0.4,2.1,1.1,2.8c0.8,0.7,1.8,1,3,1c1.2,0,2.3-0.4,3-1.1c0.8-0.7,1.1-1.6,1.1-2.8c0-1.2-0.4-2.1-1.1-2.8
		c-0.8-0.7-1.8-1.1-3-1.1c-1.2,0-2.2,0.4-3,1.1C63.7,54.6,63.3,55.5,63.3,56.6"/>
	<polygon class="st1" points="176,56.8 176,52 176,51.1 173.6,51.1 173.6,52 173.6,61.5 173.6,62.4 179.8,62.4 183.1,62.4 184,62.4 
		184,60.3 183.1,60.3 180.7,60.3 176,60.3 	"/>
	<path class="st1" d="M387.2,53.6h-4v2.5h4.3c0.7,0,1.2-0.1,1.5-0.3c0.3-0.2,0.5-0.5,0.5-0.9c0-0.5-0.2-0.8-0.5-1
		C388.7,53.7,388.1,53.6,387.2,53.6 M386.9,58.1h-3.7v3.1h3.6c1.1,0,1.9-0.1,2.3-0.3c0.4-0.2,0.6-0.6,0.6-1.2c0-0.5-0.2-0.9-0.7-1.2
		C388.7,58.2,387.9,58.1,386.9,58.1 M392.2,59.8c0,1-0.4,1.9-1.2,2.4c-0.8,0.6-2,0.9-3.4,0.9h-6.9v-0.9v-9.5v-0.9h7.1
		c1.3,0,2.3,0.3,3,0.8s1.1,1.2,1.1,2.1c0,0.5-0.1,1-0.4,1.4c-0.3,0.4-0.6,0.7-1.2,1c0.6,0.3,1.1,0.7,1.4,1.2
		C392.1,58.6,392.2,59.1,392.2,59.8"/>
	<polygon class="st1" points="419.9,62.2 419.9,52.7 419.9,51.8 417.4,51.8 417.4,52.7 417.4,54.5 417.4,56.2 410.9,56.2 
		410.9,54.8 410.9,52.7 410.9,51.8 408.4,51.8 408.4,52.7 408.4,62.2 408.4,63.1 410.9,63.1 410.9,62.2 410.9,60.1 410.9,58.3 
		417.4,58.3 417.4,60.1 417.4,62.2 417.4,63.1 419.9,63.1 	"/>
	<path class="st1" d="M127.9,56.6c-0.7-0.6-1.8-0.9-3.1-1.1c-0.5-0.1-1.2-0.1-2-0.2c-1.6-0.1-2.4-0.4-2.4-1.1c0-0.4,0.3-0.7,0.8-1
		s1.2-0.4,2-0.4c0.8,0,1.5,0.1,2.2,0.4c0.2,0.1,0.5,0.2,0.7,0.2c0.6,0.2,1.2,0.5,1.7,0.8l0.9-1.8c-0.3-0.2-0.7-0.4-1.2-0.6
		c-1.5-0.7-3-1-4.2-1c-1.6,0-2.8,0.3-3.8,1c-1,0.7-1.4,1.6-1.4,2.7c0,0.9,0.3,1.6,1,2.2c0.7,0.5,1.7,0.8,3,1c0.4,0,0.9,0.1,1.6,0.1
		c1.9,0.1,2.8,0.5,2.8,1.2c0,0.4-0.3,0.8-0.8,1.1c-0.6,0.3-1.3,0.4-2.2,0.4c-0.6,0-1.1-0.1-1.7-0.2c0,0,0,0,0,0
		c-0.4-0.1-0.8-0.2-1.2-0.3c-0.1,0-0.2-0.1-0.2-0.1c0,0,0,0-0.1,0c-0.1,0-0.2-0.1-0.3-0.1c0,0,0,0-0.1,0c-0.5-0.2-0.9-0.4-1.2-0.6
		l-0.8,1.8c0.3,0.2,0.7,0.4,1.1,0.6c0.3,0.1,0.5,0.2,0.8,0.3c0,0,0.1,0,0.1,0l0,0c1.1,0.4,2.2,0.6,3.4,0.6c1.7,0,3-0.4,4.1-1.1
		c1.1-0.7,1.6-1.6,1.6-2.7C128.9,57.9,128.6,57.1,127.9,56.6"/>
</g>
</svg>
